<?xml version="1.0" encoding="utf-8" ?>
<svg baseProfile="full" height="100px" version="1.1" width="700px" xmlns="http://www.w3.org/2000/svg" xmlns:ev="http://www.w3.org/2001/xml-events" xmlns:xlink="http://www.w3.org/1999/xlink"><defs /><polyline clip-path="url(#border_clip)" fill="none" points="50.5,80.5 50.5,30.5 0.5,30.499999999999993 0.5,80.5 50.5,80.5" stroke="black" stroke-linecap="round" stroke-width="5" /><polyline clip-path="url(#border_clip)" fill="none" points="120.5,80.50000000000003 95.50000000000003,37.19872981077808 70.5,80.5 120.5,80.50000000000004" stroke="black" stroke-linecap="round" stroke-width="5" /><polyline clip-path="url(#border_clip)" fill="none" points="190.5,80.50000000000011 190.50000000000006,30.50000000000012 140.50000000000006,30.500000000000068 140.5,80.50000000000006 190.5,80.50000000000011" stroke="black" stroke-linecap="round" stroke-width="5" /><polyline clip-path="url(#border_clip)" fill="none" points="260.5,80.5000000000002 235.50000000000006,37.19872981077825 210.5,80.50000000000011 260.5,80.50000000000021" stroke="black" stroke-linecap="round" stroke-width="5" /><polyline clip-path="url(#border_clip)" fill="none" points="330.49999999999994,80.50000000000034 330.50000000000006,30.50000000000036 280.50000000000006,30.50000000000026 280.49999999999994,80.50000000000024 330.49999999999994,80.50000000000034" stroke="black" stroke-linecap="round" stroke-width="5" /><polyline clip-path="url(#border_clip)" fill="none" points="400.4999999999999,80.50000000000048 375.5,37.19872981077852 350.49999999999994,80.50000000000037 400.4999999999999,80.5000000000005" stroke="black" stroke-linecap="round" stroke-width="5" /><polyline clip-path="url(#border_clip)" fill="none" points="470.49999999999983,80.50000000000068 470.5,30.500000000000718 420.5,30.50000000000058 420.4999999999999,80.50000000000054 470.4999999999999,80.50000000000068" stroke="black" stroke-linecap="round" stroke-width="5" /><polyline clip-path="url(#border_clip)" fill="none" points="540.4999999999998,80.5000000000009 515.5,37.198729810778914 490.49999999999983,80.50000000000072 540.4999999999998,80.50000000000091" stroke="black" stroke-linecap="round" stroke-width="5" /><polyline clip-path="url(#border_clip)" fill="none" points="610.4999999999998,80.50000000000115 610.5,30.50000000000119 560.5,30.500000000001005 560.4999999999998,80.50000000000097 610.4999999999998,80.50000000000117" stroke="black" stroke-linecap="round" stroke-width="5" /><polyline clip-path="url(#border_clip)" fill="none" points="680.4999999999997,80.50000000000142 655.4999999999998,37.198729810779426 630.4999999999997,80.50000000000122 680.4999999999995,80.50000000000144" stroke="black" stroke-linecap="round" stroke-width="5" /></svg>